<svg xmlns="http://www.w3.org/2000/svg" viewBox="0 0 24 24" fill="none"><g clip-path="url(#a)"><path fill="currentColor" d="M17.454 2.784c.733 0 1.328-.625 1.328-1.393C18.782.624 18.187 0 17.454 0c-.732.004-1.328.628-1.328 1.395 0 .768.596 1.389 1.328 1.389Zm.392 3.618c.3-.002.588-.128.799-.35.21-.22.328-.519.326-.83 0-.648-.504-1.178-1.125-1.178s-1.124.526-1.124 1.179c0 .652.502 1.179 1.124 1.179Zm3.087.461c.619 0 1.122-.527 1.122-1.176 0-.65-.503-1.176-1.122-1.176-.618 0-1.121.526-1.121 1.176 0 .65.504 1.176 1.121 1.176Zm-.37 3.095c.53 0 .959-.45.959-1.004 0-.555-.43-1.005-.96-1.005s-.959.45-.959 1.005c0 .554.43 1.004.96 1.004Zm2.471 1.004c.534 0 .966-.453.966-1.012 0-.558-.432-1.011-.966-1.011a.946.946 0 0 0-.686.299 1.007 1.007 0 0 0-.28.712c0 .559.433 1.012.966 1.012ZM17.456 9.54a.962.962 0 0 0 .698-.303 1.025 1.025 0 0 0 .285-.725V8.51c0-.568-.438-1.029-.983-1.029-.544 0-.983.46-.983 1.03 0 .565.44 1.029.983 1.029Zm-.89 2.463c.455 0 .823-.387.823-.862a.87.87 0 0 0-.238-.607.815.815 0 0 0-.583-.255h-.003c-.456 0-.824.387-.824.862s.368.861.824.861Zm3.091.435a.8.8 0 0 0 .58-.253.85.85 0 0 0 .237-.603v-.002c0-.474-.365-.858-.817-.858-.452 0-.817.384-.817.858a.872.872 0 0 0 .233.602.82.82 0 0 0 .576.256h.008Zm2.465 1c.456 0 .824-.387.824-.865s-.368-.865-.824-.865c-.456 0-.824.387-.824.865a.871.871 0 0 0 .237.608.816.816 0 0 0 .583.257h.004Zm-1.218 1.868c.385 0 .697-.328.697-.729 0-.4-.312-.729-.697-.729-.385 0-.696.329-.696.73 0 .4.311.728.696.728Zm-2.476-.984c.392 0 .712-.335.712-.747 0-.411-.317-.746-.712-.746-.395 0-.713.335-.713.746 0 .412.321.747.713.747Zm-3.088-.456a.705.705 0 0 0 .5-.22.752.752 0 0 0 .205-.52.753.753 0 0 0-.205-.518.706.706 0 0 0-.499-.222h-.001a.705.705 0 0 0-.5.22.752.752 0 0 0-.205.52c0 .194.074.38.205.519.132.138.311.218.5.221Zm1.717 1.755c.34 0 .614-.29.614-.641a.647.647 0 0 0-.176-.452.606.606 0 0 0-.433-.19h-.005c-.341 0-.615.29-.615.642a.646.646 0 0 0 .175.45c.114.121.27.19.433.191h.007Zm2.475 1.001c.341 0 .622-.29.622-.648a.634.634 0 0 0-.622-.65.618.618 0 0 0-.444.19.66.66 0 0 0-.184.46.66.66 0 0 0 .184.458c.118.122.278.19.444.19Zm-1.394.75c.27 0 .49-.23.49-.512a.518.518 0 0 0-.142-.36.486.486 0 0 0-.348-.152c-.27 0-.49.23-.49.512a.52.52 0 0 0 .143.36c.092.097.216.151.347.153Zm-1.321.404a.433.433 0 0 0 .314-.137.46.46 0 0 0 .128-.326v-.002c0-.257-.2-.464-.442-.464a.435.435 0 0 0-.314.137.46.46 0 0 0-.129.326v.002a.464.464 0 0 0 .124.324.435.435 0 0 0 .31.14h.009ZM15.66 16.44a.54.54 0 0 0 .527-.552.54.54 0 0 0-.527-.551.54.54 0 0 0-.527.551.56.56 0 0 0 .153.388.525.525 0 0 0 .374.164Zm-1.698-1.265a.628.628 0 0 0 .615-.642.627.627 0 0 0-.615-.641.628.628 0 0 0-.614.641c0 .17.064.332.179.452a.61.61 0 0 0 .435.19Zm5.034 8.04c.73 0 1.322-.621 1.322-1.386 0-.765-.592-1.385-1.322-1.385-.73 0-1.32.62-1.32 1.385s.59 1.386 1.32 1.386Zm-3.355-1.754c.607 0 1.1-.517 1.1-1.154 0-.638-.493-1.155-1.1-1.155-.608 0-1.102.517-1.102 1.155 0 .637.493 1.154 1.102 1.154ZM13.723 24c.615 0 1.111-.52 1.111-1.165 0-.642-.496-1.166-1.11-1.166-.616 0-1.112.52-1.112 1.166-.002.306.114.601.322.82.208.218.492.343.789.345Zm-.577-4.676a.943.943 0 0 0 .684-.299 1.005 1.005 0 0 0 .28-.71 1.033 1.033 0 0 0-.28-.71.97.97 0 0 0-.684-.299.942.942 0 0 0-.684.299 1.005 1.005 0 0 0-.28.71c.002.555.434 1.009.964 1.009Zm-1.913 2.572c.53 0 .96-.45.96-1.004 0-.555-.43-1.005-.96-1.005s-.959.45-.959 1.005c-.002.264.097.518.275.706a.948.948 0 0 0 .678.298h.006Zm-2.061 1.746c.53 0 .956-.45.956-1.002 0-.554-.43-1.001-.956-1.001-.53 0-.957.45-.957 1.001 0 .552.43 1.002.957 1.002ZM7.456 21.37a.812.812 0 0 0 .58-.254.867.867 0 0 0 .237-.601c0-.471-.365-.855-.817-.855a.815.815 0 0 0-.577.255.87.87 0 0 0-.238.6c0 .224.085.44.238.6.152.16.36.251.577.255Zm2.065-1.754a.81.81 0 0 0 .58-.252.865.865 0 0 0 .237-.603c0-.474-.364-.854-.817-.854a.815.815 0 0 0-.577.253.87.87 0 0 0-.24.6c0 .224.085.44.238.6.152.16.359.253.576.256h.003Zm1.927-2.571a.8.8 0 0 0 .58-.253.85.85 0 0 0 .237-.603v-.002c0-.474-.364-.858-.817-.858a.802.802 0 0 0-.58.253.854.854 0 0 0-.237.603v.002c0 .474.365.858.817.858Zm-2.947.354c.391 0 .71-.332.71-.743 0-.412-.319-.743-.71-.743-.392 0-.71.331-.71.743s.318.743.71.743Zm-2.055 1.746a.69.69 0 0 0 .498-.216.734.734 0 0 0 .205-.518v-.002a.742.742 0 0 0-.202-.517.695.695 0 0 0-.497-.218h-.004a.688.688 0 0 0-.499.216.732.732 0 0 0-.204.517v.002a.752.752 0 0 0 .204.519.707.707 0 0 0 .499.217Zm-.473-2.047a.603.603 0 0 0 .431-.188.644.644 0 0 0 .177-.447.622.622 0 0 0-.608-.634c-.334 0-.607.285-.607.634 0 .353.273.635.607.635Zm-.017-1.796a.51.51 0 0 0 .37-.162.544.544 0 0 0 .15-.385c0-.3-.233-.548-.52-.548a.534.534 0 0 0-.52.548c0 .303.233.547.52.547Zm.286-1.493c.247 0 .443-.21.443-.465s-.2-.464-.443-.464a.453.453 0 0 0-.442.464c0 .255.195.465.442.465Zm1.772-.25a.54.54 0 0 0 .527-.552.54.54 0 0 0-.527-.551.54.54 0 0 0-.527.551c0 .145.054.285.153.388a.524.524 0 0 0 .374.164Zm1.944-.783c.338 0 .615-.29.615-.642a.647.647 0 0 0-.177-.45.606.606 0 0 0-.433-.191h-.005c-.338 0-.614.29-.614.641a.655.655 0 0 0 .177.452.616.616 0 0 0 .434.19h.003Zm.463 2.037a.686.686 0 0 0 .493-.212.732.732 0 0 0 .203-.51.733.733 0 0 0-.204-.508.687.687 0 0 0-.494-.211.687.687 0 0 0-.493.21.733.733 0 0 0-.204.51c0 .19.073.374.203.51.131.135.308.21.493.211h.003Zm-2.382.543c.338 0 .608-.286.608-.639 0-.353-.274-.639-.608-.639a.595.595 0 0 0-.432.188.635.635 0 0 0-.176.448v.003a.647.647 0 0 0 .172.448.61.61 0 0 0 .429.19h.007Zm-6.722-.947c.726 0 1.318-.618 1.318-1.379 0-.76-.592-1.379-1.318-1.379-.726 0-1.317.62-1.317 1.38 0 .76.591 1.377 1.317 1.377Zm2.99-2.462c.626 0 1.129-.53 1.129-1.183S4.929 9.58 4.307 9.58c-.3.002-.589.127-.8.349-.212.221-.33.52-.328.832v.002c0 .656.507 1.183 1.128 1.183ZM3.141 8.912c.621 0 1.121-.527 1.121-1.176 0-.65-.503-1.176-1.121-1.176a1.098 1.098 0 0 0-.796.347 1.17 1.17 0 0 0-.326.827v.002c-.003.309.113.606.322.827.21.22.495.346.794.35h.006Zm2.882-1.438c.53 0 .963-.45.963-1.009 0-.558-.432-1.008-.963-1.008-.53 0-.963.45-.963 1.008 0 .559.433 1.009.963 1.009Zm1.178 3.028c.534 0 .966-.453.966-1.012 0-.558-.432-1.011-.966-1.011-.533 0-.966.453-.966 1.011 0 .559.433 1.012.966 1.012Zm2.624-.629a.815.815 0 0 0 .583-.255.87.87 0 0 0 .238-.607.872.872 0 0 0-.232-.603.822.822 0 0 0-.577-.258.798.798 0 0 0-.584.24.85.85 0 0 0-.25.595v.026a.867.867 0 0 0 .235.606.812.812 0 0 0 .58.256h.007Zm2.266.008c.392 0 .71-.331.71-.74 0-.408-.319-.74-.71-.74a.705.705 0 0 0-.507.217.753.753 0 0 0-.21.523c0 .196.076.385.21.523a.705.705 0 0 0 .507.217Zm1.872.445a.613.613 0 0 0 .598-.624.61.61 0 0 0-.598-.625.594.594 0 0 0-.424.185.634.634 0 0 0-.174.44c.004.342.27.624.598.624Zm.244-2.279a.516.516 0 0 0 .37-.16.55.55 0 0 0 .15-.384c0-.3-.233-.545-.52-.545a.533.533 0 0 0-.52.545.55.55 0 0 0 .15.383c.098.102.231.16.37.161Zm-1.44-.746a.59.59 0 0 0 .423-.182.63.63 0 0 0-.001-.875.59.59 0 0 0-.848 0 .63.63 0 0 0 0 .875.59.59 0 0 0 .423.182h.003Zm-1.85-.452a.698.698 0 0 0 .498-.218.745.745 0 0 0 .204-.518c0-.408-.314-.736-.703-.736-.389 0-.702.332-.702.736a.75.75 0 0 0 .202.518.706.706 0 0 0 .498.218h.002Zm-2.263.003c.456 0 .824-.387.824-.862s-.368-.862-.824-.862c-.456 0-.824.387-.824.862 0 .227.086.445.24.607a.819.819 0 0 0 .584.255ZM5.608 4.697c.516 0 .932-.436.932-.977 0-.54-.419-.977-.932-.977-.517 0-.933.437-.933.977s.419.977.933.977Zm2.622-.592c.456 0 .824-.387.824-.862s-.368-.862-.824-.862c-.456 0-.824.387-.824.862s.368.862.824.862Zm2.265.01c.392 0 .71-.33.71-.742s-.318-.743-.71-.743a.694.694 0 0 0-.503.219.74.74 0 0 0-.207.522v.002c0 .196.074.383.207.523.133.139.314.218.503.22Zm1.859.443a.61.61 0 0 0 .598-.625.61.61 0 0 0-.598-.624.595.595 0 0 0-.428.183.635.635 0 0 0 0 .883.595.595 0 0 0 .428.183Zm1.428.766a.53.53 0 0 0 .378-.165.565.565 0 0 0 .155-.394c0-.31-.24-.558-.533-.558a.548.548 0 0 0-.534.558c0 .308.24.559.534.559Zm1.047.879a.43.43 0 0 0 .312-.136.458.458 0 0 0 .127-.324.47.47 0 0 0-.127-.324.442.442 0 0 0-.31-.137h-.002a.43.43 0 0 0-.311.136.46.46 0 0 0-.128.323v.001a.467.467 0 0 0 .124.323.438.438 0 0 0 .309.137h.006Z"/></g><defs><clipPath id="a"><path fill="#fff" d="M0 0h24v24H0z"/></clipPath></defs></svg>